<?xml version="1.0" encoding="utf-8"?>
<svg viewBox="0 0 1450 1450" width="1450" height="1450" style="" xmlns="http://www.w3.org/2000/svg">
  <defs>
    <style type="text/css">
	.st0{fill:#4743F7;}
	.st1{fill:#040B60;}
</style>
  </defs>
  <polyline class="st0" points="1261.507 597.02 1059.308 370.12 1233.207 370.12 1430.308 597.02 1430.308 597.92 1233.207 824.819 1059.308 824.819 1261.507 597.92"/>
  <polygon class="st1" points="1162.507 1086.72 947.408 822.92 1149.107 597.52 973.908 597.52 791.807 806.52 793.207 370.22 640.507 370.32 640.007 1086.72 640.007 1089.62 790.908 1089.62 791.707 840.72 987.307 1086.72"/>
  <path class="st1" d="M 557.907 370.22 L 405.107 370.42 L 404.907 599.02 C 373.807 597.32 323.607 595.02 276.207 595.02 C 140.107 595.02 35.007 707.02 35.007 840.22 C 35.007 973.42 119.907 1092.72 262.907 1092.72 C 277.307 1092.72 295.807 1092.52 315.707 1092.22 L 404.707 989.02 L 404.707 1090.22 C 409.207 1090.02 413.107 1089.92 417.407 1089.82 L 555.607 1089.82 L 557.907 370.22 Z M 297.607 959.62 C 236.607 959.62 193.807 900.92 193.807 839.92 C 193.807 778.92 237.107 731.22 297.607 729.32 C 338.407 728.02 377.407 729.12 404.807 730.52 L 404.607 959.72 L 297.607 959.62 Z"/>
</svg>