<svg xmlns="http://www.w3.org/2000/svg" viewBox="27.5 27.5 520 520"> <svg x="97.5" y="97.5" xmlns="http://www.w3.org/2000/svg" preserveAspectRatio="none" width="380" height="380" fill="#ffffff" fill-opacity="0" style="overflow: visible;"><rect rx="50%" ry="50%" stroke-width="0" stroke="#000" width="380" height="380" x="0" y="0" style=""></rect></svg> <g transform="rotate(0 287.5000005 287.501404)"><svg xmlns="http://www.w3.org/2000/svg" xmlns:xlink="http://www.w3.org/1999/xlink" version="1.1" id="Livello_1" x="215.320313" y="172.501404" viewBox="1594.9000244140625 838.2999877929688 262.800048828125 418.70001220703125" xml:space="preserve" height="230" width="144.359375" preserveAspectRatio="xMinYMin" enable-background="new 0 0 2000 2000" style="overflow: visible;"><linearGradient id="SVGID_1_" gradientUnits="userSpaceOnUse" x1="1687.9132" y1="1314.1021" x2="1828.2579" y2="832.2104" style=""><stop offset="0" style="stop-color: #7FFFC4;"></stop><stop offset="1" style="stop-color: #0BB8FC;"></stop></linearGradient><path class="st0" d="M1834.8,1103.5l-175.4,62.2c-35.7,12.6-54.3,51.8-41.7,87.5l1.3,3.8l175.4-62.2c35.7-12.6,54.3-51.8,41.7-87.5   L1834.8,1103.5z" style="fill: url(#SVGID_1_);"></path><linearGradient id="SVGID_2_" gradientUnits="userSpaceOnUse" x1="1632.3416" y1="1297.9175" x2="1772.6863" y2="816.0259" style=""><stop offset="0" style="stop-color: #7FFFC4;"></stop><stop offset="1" style="stop-color: #0BB8FC;"></stop></linearGradient><path class="st1" d="M1856.6,838.3c-23.1,0-43.6,11.3-56.2,28.7c-21.1-14.5-46.7-23-74.1-23c-72.5,0-131.4,59-131.4,131.4   s59,131.4,131.4,131.4c72.5,0,131.4-59,131.4-131.4l0,0V838.3H1856.6z M1726.2,1036.3c-33.5,0-60.8-27.3-60.8-60.8   s27.3-60.8,60.8-60.8c33.5,0,60.8,27.3,60.8,60.8S1759.8,1036.3,1726.2,1036.3z" style="fill: url(#SVGID_2_);"></path></svg></g></svg>