
            <svg xmlns="http://www.w3.org/2000/svg">
                <filter id="grayscale">
                    <feColorMatrix type="saturate" values="0"/>
                </filter>
                <g filter="url(#grayscale)">
                    <svg xmlns="http://www.w3.org/2000/svg" viewBox="75.57500732421875 47.62999725341797 423.8599853515625 445.1750030517578"> <svg xmlns="http://www.w3.org/2000/svg" xmlns:xlink="http://www.w3.org/1999/xlink" version="1.1" id="Livello_1" x="215.3203125" y="117.62999725341797" viewBox="1594.9000244140625 838.2999877929688 262.800048828125 418.70001220703125" xml:space="preserve" height="230" width="144.359375" preserveAspectRatio="xMinYMin" enable-background="new 0 0 2000 2000" style="overflow: visible;"><linearGradient id="SVGID_1_" gradientUnits="userSpaceOnUse" x1="1687.9132" y1="1314.1021" x2="1828.2579" y2="832.2104" style=""><stop offset="0" style="stop-color: #7FFFC4;"></stop><stop offset="1" style="stop-color: #0BB8FC;"></stop></linearGradient><path class="st0" d="M1834.8,1103.5l-175.4,62.2c-35.7,12.6-54.3,51.8-41.7,87.5l1.3,3.8l175.4-62.2c35.7-12.6,54.3-51.8,41.7-87.5   L1834.8,1103.5z" style="fill: url(#SVGID_1_);"></path><linearGradient id="SVGID_2_" gradientUnits="userSpaceOnUse" x1="1632.3416" y1="1297.9175" x2="1772.6863" y2="816.0259" style=""><stop offset="0" style="stop-color: #7FFFC4;"></stop><stop offset="1" style="stop-color: #0BB8FC;"></stop></linearGradient><path class="st1" d="M1856.6,838.3c-23.1,0-43.6,11.3-56.2,28.7c-21.1-14.5-46.7-23-74.1-23c-72.5,0-131.4,59-131.4,131.4   s59,131.4,131.4,131.4c72.5,0,131.4-59,131.4-131.4l0,0V838.3H1856.6z M1726.2,1036.3c-33.5,0-60.8-27.3-60.8-60.8   s27.3-60.8,60.8-60.8c33.5,0,60.8,27.3,60.8,60.8S1759.8,1036.3,1726.2,1036.3z" style="fill: url(#SVGID_2_);"></path></svg> <svg y="389.314998626709" viewBox="1.2899999618530273 5.619999885559082 283.8599853515625 33.4900016784668" x="145.57500732421875" height="33.4900016784668" width="283.8599853515625" style="overflow: visible;"><g fill="#3e3e3e" fill-opacity="1" style=""><path d="M26.49 20.79L20.54 20.79Q19.65 19.17 18.09 18.32Q16.54 17.46 14.47 17.46L14.47 17.46Q12.17 17.46 10.40 18.50Q8.62 19.54 7.62 21.46Q6.62 23.38 6.62 25.90L6.62 25.90Q6.62 28.49 7.64 30.41Q8.66 32.34 10.47 33.37Q12.28 34.41 14.69 34.41L14.69 34.41Q17.65 34.41 19.54 32.84Q21.42 31.27 22.02 28.45L22.02 28.45L13.13 28.45L13.13 24.49L27.12 24.49L27.12 29.01Q26.60 31.71 24.90 34.00Q23.20 36.30 20.52 37.68Q17.83 39.07 14.50 39.07L14.50 39.07Q10.77 39.07 7.75 37.39Q4.74 35.70 3.02 32.71Q1.29 29.71 1.29 25.90L1.29 25.90Q1.29 22.09 3.02 19.07Q4.74 16.06 7.75 14.37Q10.77 12.69 14.47 12.69L14.47 12.69Q18.83 12.69 22.05 14.82Q25.27 16.95 26.49 20.79L26.49 20.79ZM53.15 13.02L53.15 34.74L61.66 34.74L61.66 38.85L47.97 38.85L47.97 13.02L53.15 13.02ZM93.94 39.11Q90.31 39.11 87.28 37.41Q84.25 35.70 82.47 32.69Q80.69 29.67 80.69 25.86L80.69 25.86Q80.69 22.09 82.47 19.07Q84.25 16.06 87.28 14.36Q90.31 12.65 93.94 12.65L93.94 12.65Q97.60 12.65 100.62 14.36Q103.63 16.06 105.39 19.07Q107.15 22.09 107.15 25.86L107.15 25.86Q107.15 29.67 105.39 32.69Q103.63 35.70 100.60 37.41Q97.57 39.11 93.94 39.11L93.94 39.11ZM93.94 34.48Q96.27 34.48 98.05 33.43Q99.82 32.38 100.82 30.41Q101.82 28.45 101.82 25.86L101.82 25.86Q101.82 23.27 100.82 21.33Q99.82 19.39 98.05 18.35Q96.27 17.32 93.94 17.32L93.94 17.32Q91.61 17.32 89.81 18.35Q88.02 19.39 87.02 21.33Q86.02 23.27 86.02 25.86L86.02 25.86Q86.02 28.45 87.02 30.41Q88.02 32.38 89.81 33.43Q91.61 34.48 93.94 34.48L93.94 34.48ZM90.50 10.55Q89.46 10.55 88.76 9.84Q88.06 9.14 88.06 8.10L88.06 8.10Q88.06 7.07 88.76 6.35Q89.46 5.62 90.50 5.62L90.50 5.62Q91.53 5.62 92.26 6.35Q92.98 7.07 92.98 8.10L92.98 8.10Q92.98 9.14 92.26 9.84Q91.53 10.55 90.50 10.55L90.50 10.55ZM97.34 10.55Q96.31 10.55 95.61 9.84Q94.90 9.14 94.90 8.10L94.90 8.10Q94.90 7.07 95.61 6.35Q96.31 5.62 97.34 5.62L97.34 5.62Q98.38 5.62 99.10 6.35Q99.82 7.07 99.82 8.10L99.82 8.10Q99.82 9.14 99.10 9.84Q98.38 10.55 97.34 10.55L97.34 10.55ZM151.94 20.79L145.98 20.79Q145.09 19.17 143.54 18.32Q141.98 17.46 139.91 17.46L139.91 17.46Q137.62 17.46 135.84 18.50Q134.06 19.54 133.07 21.46Q132.07 23.38 132.07 25.90L132.07 25.90Q132.07 28.49 133.08 30.41Q134.10 32.34 135.91 33.37Q137.73 34.41 140.13 34.41L140.13 34.41Q143.09 34.41 144.98 32.84Q146.87 31.27 147.46 28.45L147.46 28.45L138.58 28.45L138.58 24.49L152.56 24.49L152.56 29.01Q152.05 31.71 150.34 34.00Q148.64 36.30 145.96 37.68Q143.28 39.07 139.95 39.07L139.95 39.07Q136.21 39.07 133.20 37.39Q130.18 35.70 128.46 32.71Q126.74 29.71 126.74 25.90L126.74 25.90Q126.74 22.09 128.46 19.07Q130.18 16.06 133.20 14.37Q136.21 12.69 139.91 12.69L139.91 12.69Q144.28 12.69 147.50 14.82Q150.72 16.95 151.94 20.79L151.94 20.79ZM197.35 20.79L191.40 20.79Q190.51 19.17 188.95 18.32Q187.40 17.46 185.33 17.46L185.33 17.46Q183.03 17.46 181.26 18.50Q179.48 19.54 178.48 21.46Q177.48 23.38 177.48 25.90L177.48 25.90Q177.48 28.49 178.50 30.41Q179.52 32.34 181.33 33.37Q183.14 34.41 185.55 34.41L185.55 34.41Q188.51 34.41 190.40 32.84Q192.28 31.27 192.88 28.45L192.88 28.45L184.00 28.45L184.00 24.49L197.98 24.49L197.98 29.01Q197.46 31.71 195.76 34.00Q194.06 36.30 191.38 37.68Q188.69 39.07 185.36 39.07L185.36 39.07Q181.63 39.07 178.61 37.39Q175.60 35.70 173.88 32.71Q172.16 29.71 172.16 25.90L172.16 25.90Q172.16 22.09 173.88 19.07Q175.60 16.06 178.61 14.37Q181.63 12.69 185.33 12.69L185.33 12.69Q189.69 12.69 192.91 14.82Q196.13 16.95 197.35 20.79L197.35 20.79ZM236.52 13.02L242.03 13.02L232.56 38.85L226.27 38.85L216.79 13.02L222.34 13.02L229.45 33.56L236.52 13.02ZM279.67 38.85L277.97 33.93L267.69 33.93L265.98 38.85L260.54 38.85L269.83 12.99L275.86 12.99L285.15 38.85L279.67 38.85ZM269.09 29.79L276.57 29.79L272.83 18.98L269.09 29.79Z" transform="translate(0, 0)"></path></g></svg></svg>
                </g>
            </svg>
        