<svg xmlns="http://www.w3.org/2000/svg" viewBox="19.99624633789061 158.38282155988733 535.0074938265448 258.23432636264715"> <g transform="rotate(0 127.10156366665606 287.49998474121094)"><svg xmlns="http://www.w3.org/2000/svg" xmlns:xlink="http://www.w3.org/1999/xlink" version="1.1" id="Livello_1" x="89.99624633789061" y="228.38282155988733" viewBox="1594.9000244140625 838.2999877929688 262.800048828125 418.70001220703125" xml:space="preserve" height="118.2343263626472" width="74.2106346575309" preserveAspectRatio="xMinYMin" enable-background="new 0 0 2000 2000" style="overflow: visible;"><linearGradient id="SVGID_1_" gradientUnits="userSpaceOnUse" x1="1687.9132" y1="1314.1021" x2="1828.2579" y2="832.2104" style=""><stop offset="0" style="stop-color: #7FFFC4;"></stop><stop offset="1" style="stop-color: #0BB8FC;"></stop></linearGradient><path class="st0" d="M1834.8,1103.5l-175.4,62.2c-35.7,12.6-54.3,51.8-41.7,87.5l1.3,3.8l175.4-62.2c35.7-12.6,54.3-51.8,41.7-87.5   L1834.8,1103.5z" style="fill: url(#SVGID_1_);"></path><linearGradient id="SVGID_2_" gradientUnits="userSpaceOnUse" x1="1632.3416" y1="1297.9175" x2="1772.6863" y2="816.0259" style=""><stop offset="0" style="stop-color: #7FFFC4;"></stop><stop offset="1" style="stop-color: #0BB8FC;"></stop></linearGradient><path class="st1" d="M1856.6,838.3c-23.1,0-43.6,11.3-56.2,28.7c-21.1-14.5-46.7-23-74.1-23c-72.5,0-131.4,59-131.4,131.4   s59,131.4,131.4,131.4c72.5,0,131.4-59,131.4-131.4l0,0V838.3H1856.6z M1726.2,1036.3c-33.5,0-60.8-27.3-60.8-60.8   s27.3-60.8,60.8-60.8c33.5,0,60.8,27.3,60.8,60.8S1759.8,1036.3,1726.2,1036.3z" style="fill: url(#SVGID_2_);"></path></svg></g> <g transform="rotate(0 336.4287432161932 287.49983639716544)"><svg x="187.85374626795098" y="269.7648357868139" viewBox="1.3700000047683716 5.960000038146973 297.1499938964844 35.470001220703125" height="35.470001220703125" width="297.1499938964844" xmlns="http://www.w3.org/2000/svg" style="overflow: visible;"><g fill="#3e3e3e" fill-opacity="1" style=""><path d="M28.06 22.03L21.75 22.03Q20.81 20.30 19.17 19.40Q17.52 18.50 15.32 18.50L15.32 18.50Q12.89 18.50 11.01 19.60Q9.13 20.69 8.07 22.73Q7.02 24.77 7.02 27.43L7.02 27.43Q7.02 30.18 8.09 32.22Q9.17 34.25 11.09 35.35Q13.01 36.45 15.56 36.45L15.56 36.45Q18.69 36.45 20.69 34.78Q22.69 33.12 23.32 30.14L23.32 30.14L13.91 30.14L13.91 25.95L28.73 25.95L28.73 30.73Q28.18 33.59 26.38 36.02Q24.57 38.45 21.73 39.92Q18.89 41.39 15.36 41.39L15.36 41.39Q11.41 41.39 8.21 39.60Q5.02 37.82 3.19 34.65Q1.37 31.47 1.37 27.43L1.37 27.43Q1.37 23.40 3.19 20.20Q5.02 17.01 8.21 15.23Q11.41 13.44 15.32 13.44L15.32 13.44Q19.95 13.44 23.36 15.70Q26.77 17.95 28.06 22.03L28.06 22.03ZM55.71 13.80L55.71 36.80L64.72 36.80L64.72 41.15L50.22 41.15L50.22 13.80L55.71 13.80ZM98.33 41.43Q94.49 41.43 91.27 39.62Q88.06 37.82 86.18 34.63Q84.30 31.43 84.30 27.40L84.30 27.40Q84.30 23.40 86.18 20.20Q88.06 17.01 91.27 15.21Q94.49 13.40 98.33 13.40L98.33 13.40Q102.21 13.40 105.40 15.21Q108.60 17.01 110.46 20.20Q112.32 23.40 112.32 27.40L112.32 27.40Q112.32 31.43 110.46 34.63Q108.60 37.82 105.38 39.62Q102.17 41.43 98.33 41.43L98.33 41.43ZM98.33 36.53Q100.80 36.53 102.68 35.41Q104.56 34.29 105.62 32.22Q106.68 30.14 106.68 27.40L106.68 27.40Q106.68 24.65 105.62 22.59Q104.56 20.54 102.68 19.44Q100.80 18.34 98.33 18.34L98.33 18.34Q95.86 18.34 93.96 19.44Q92.06 20.54 91.00 22.59Q89.94 24.65 89.94 27.40L89.94 27.40Q89.94 30.14 91.00 32.22Q92.06 34.29 93.96 35.41Q95.86 36.53 98.33 36.53L98.33 36.53ZM94.68 11.17Q93.59 11.17 92.84 10.43Q92.10 9.68 92.10 8.58L92.10 8.58Q92.10 7.49 92.84 6.72Q93.59 5.96 94.68 5.96L94.68 5.96Q95.78 5.96 96.55 6.72Q97.31 7.49 97.31 8.58L97.31 8.58Q97.31 9.68 96.55 10.43Q95.78 11.17 94.68 11.17L94.68 11.17ZM101.94 11.17Q100.84 11.17 100.09 10.43Q99.35 9.68 99.35 8.58L99.35 8.58Q99.35 7.49 100.09 6.72Q100.84 5.96 101.94 5.96L101.94 5.96Q103.03 5.96 103.80 6.72Q104.56 7.49 104.56 8.58L104.56 8.58Q104.56 9.68 103.80 10.43Q103.03 11.17 101.94 11.17L101.94 11.17ZM159.17 22.03L152.86 22.03Q151.92 20.30 150.28 19.40Q148.63 18.50 146.44 18.50L146.44 18.50Q144.01 18.50 142.13 19.60Q140.24 20.69 139.19 22.73Q138.13 24.77 138.13 27.43L138.13 27.43Q138.13 30.18 139.21 32.22Q140.28 34.25 142.20 35.35Q144.12 36.45 146.67 36.45L146.67 36.45Q149.81 36.45 151.81 34.78Q153.80 33.12 154.43 30.14L154.43 30.14L145.03 30.14L145.03 25.95L159.84 25.95L159.84 30.73Q159.29 33.59 157.49 36.02Q155.69 38.45 152.84 39.92Q150.00 41.39 146.48 41.39L146.48 41.39Q142.52 41.39 139.32 39.60Q136.13 37.82 134.31 34.65Q132.48 31.47 132.48 27.43L132.48 27.43Q132.48 23.40 134.31 20.20Q136.13 17.01 139.32 15.23Q142.52 13.44 146.44 13.44L146.44 13.44Q151.06 13.44 154.47 15.70Q157.88 17.95 159.17 22.03L159.17 22.03ZM206.69 22.03L200.38 22.03Q199.44 20.30 197.80 19.40Q196.15 18.50 193.95 18.50L193.95 18.50Q191.53 18.50 189.64 19.60Q187.76 20.69 186.70 22.73Q185.65 24.77 185.65 27.43L185.65 27.43Q185.65 30.18 186.72 32.22Q187.80 34.25 189.72 35.35Q191.64 36.45 194.19 36.45L194.19 36.45Q197.33 36.45 199.32 34.78Q201.32 33.12 201.95 30.14L201.95 30.14L192.54 30.14L192.54 25.95L207.36 25.95L207.36 30.73Q206.81 33.59 205.01 36.02Q203.20 38.45 200.36 39.92Q197.52 41.39 193.99 41.39L193.99 41.39Q190.04 41.39 186.84 39.60Q183.65 37.82 181.82 34.65Q180.00 31.47 180.00 27.43L180.00 27.43Q180.00 23.40 181.82 20.20Q183.65 17.01 186.84 15.23Q190.04 13.44 193.95 13.44L193.95 13.44Q198.58 13.44 201.99 15.70Q205.40 17.95 206.69 22.03L206.69 22.03ZM247.59 13.80L253.43 13.80L243.39 41.15L236.73 41.15L226.70 13.80L232.58 13.80L240.10 35.55L247.59 13.80ZM292.72 41.15L290.91 35.94L280.02 35.94L278.21 41.15L272.45 41.15L282.29 13.76L288.68 13.76L298.52 41.15L292.72 41.15ZM281.51 31.55L289.42 31.55L285.47 20.11L281.51 31.55Z" transform="translate(0, 0)"></path></g></svg></g></svg>